# xmcd
#
# Track frame offsets:
#	150
#	19378
#	43516
#	57776
#	75651
#	89625
#	105849
#	117404
#	129144
#	147234
#	163403
#	181125
#
# Disc length: 2948 seconds
#
# Revision: 1
# Processed by: cddbd v1.5.1PL0 Copyright (c) Steve Scherf et al.
# Submitted via: audiograbber 1.83.01
#
DISCID=990b820c
DTITLE=VIOLA QUEBRADA - SERTANEJA
DYEAR=1900
DGENRE=
TTITLE0=SERTANEJA
TTITLE1=BALÃO QUE CAI
TTITLE2=BONECA COBIÇADA
TTITLE3=O MINEIRO E O ITALIANO
TTITLE4=ENCANTOS DA NATUREZA
TTITLE5=CHITÃOZINHO E XORORÓ
TTITLE6=VOCÊ VAI GOSTAR
TTITLE7=NHÁ CAROLA
TTITLE8=CABOCLA TERESA
TTITLE9=LEMBRANÇAS
TTITLE10=MEU PARANÁ
TTITLE11=CABELO LOIRO
EXTD=
EXTT0=
EXTT1=
EXTT2=
EXTT3=
EXTT4=
EXTT5=
EXTT6=
EXTT7=
EXTT8=
EXTT9=
EXTT10=
EXTT11=
PLAYORDER=
